PathFileType	4	(X/Y/Z)	 s01c0403.trc
DataRate	CameraRate	NumFrames	NumMarkers	Units	OrigDataRate	OrigDataStartFrame	OrigNumFrames
200	200	4	47	mm	200	751	2000
Frame#	Time	racr			lacr			c7			jug			rlel			rdr			llel			ldr			lic			ric			lasi			rasi			rpsi			lpsi			rgt			lgt			rth1			rth2			rth3			rth4			rlfc			rsh1			rsh2			rsh3			rsh4			rlmal			rmmal			rcal			rtoe			rmt5			lth1			lth2			lth4			lth3			llfc			lsh1			lsh2			lsh3			lsh4			llmal			lmmal			lcal			ltoe			lmt5			SBIKE			LBIKE			RBIKE			
		X1	Y1	Z1	X2	Y2	Z2	X3	Y3	Z3	X4	Y4	Z4	X5	Y5	Z5	X6	Y6	Z6	X7	Y7	Z7	X8	Y8	Z8	X9	Y9	Z9	X10	Y10	Z10	X11	Y11	Z11	X12	Y12	Z12	X13	Y13	Z13	X14	Y14	Z14	X15	Y15	Z15	X16	Y16	Z16	X17	Y17	Z17	X18	Y18	Z18	X19	Y19	Z19	X20	Y20	Z20	X21	Y21	Z21	X22	Y22	Z22	X23	Y23	Z23	X24	Y24	Z24	X25	Y25	Z25	X26	Y26	Z26	X27	Y27	Z27	X28	Y28	Z28	X29	Y29	Z29	X30	Y30	Z30	X31	Y31	Z31	X32	Y32	Z32	X33	Y33	Z33	X34	Y34	Z34	X35	Y35	Z35	X36	Y36	Z36	X37	Y37	Z37	X38	Y38	Z38	X39	Y39	Z39	X40	Y40	Z40	X41	Y41	Z41	X42	Y42	Z42	X43	Y43	Z43	X44	Y44	Z44	X45	Y45	Z45	X46	Y46	Z46	X47	Y47	Z47	
751	3.7550	715.678018	1342.231520	-60.386349	763.527439	1294.423858	-432.552167	732.559239	1422.785889	-249.460191	719.368983	1259.653997	-237.170132	569.036012	1091.568276	35.333506	705.317680	897.877105	-43.202790	578.647741	1081.453806	-548.156262	703.257543	897.731484	-449.625340	374.923186	1210.157365	-435.627372	346.100492	1247.128094	-115.784344	360.644672	1159.664595	-413.429860	371.030325	1197.232219	-144.324246	226.439115	1283.413782	-230.613504	232.149867	1274.214369	-336.686884	291.704321	1152.227912	-74.855126	267.184707	1082.319080	-450.067424	387.987966	1068.751579	-55.946503	462.998575	1031.514389	-55.467379	540.204526	984.903307	-64.259190	490.221080	1077.302742	-78.157346	605.780969	895.535034	-86.729221	525.780061	822.466912	-61.573430	465.702094	761.829504	-64.767454	396.941805	706.387960	-77.455928	498.978689	728.065400	-101.325484	287.323102	624.497158	-99.878051	330.002424	614.417006	-177.346880	232.192666	621.368803	-156.925000	438.392991	445.191542	-133.141772	335.558430	485.983580	-68.024015	260.414136	961.469216	-456.922796	286.130147	875.289987	-456.549565	337.989536	889.376560	-459.514919	301.358208	793.255854	-438.923968	320.725252	669.646830	-421.342574	241.748474	592.724700	-453.415987	206.512197	514.069732	-445.590615	169.891628	437.290763	-431.686069	259.587913	493.190609	-421.340909	121.471362	321.085889	-415.215466	102.835252	241.036753	-296.844486	73.555024	323.936021	-373.161241	272.058498	130.356938	-376.454193	177.433198	179.029825	-443.192850	-225.510155	892.830318	-254.800842	-13.394191	84.833941	-457.947813	-23.129704	81.083572	-57.954072	
752	3.7600	715.847061	1340.074869	-58.927954	764.448124	1293.547957	-430.181169	733.412111	1421.091874	-247.291636	718.993022	1258.112955	-235.732831	567.313512	1090.252972	35.563556	704.971739	897.929847	-43.297746	579.940584	1081.680569	-547.192215	703.435737	897.578237	-449.545311	375.187451	1211.851350	-434.409940	345.483472	1249.078172	-114.634605	360.497078	1161.408457	-412.537761	370.930496	1198.591886	-143.094908	226.861955	1285.612025	-230.312422	232.224908	1276.589864	-336.400846	291.576433	1154.599644	-74.955798	267.737375	1083.895127	-449.734645	386.956438	1069.237731	-56.265048	461.757902	1031.219890	-56.463330	538.243594	983.855733	-64.945697	489.410259	1076.878705	-78.360474	604.522979	893.728666	-87.978337	525.544873	819.458210	-62.664851	466.221579	757.950482	-65.045655	397.981729	701.748348	-77.413223	499.662663	724.447212	-101.837866	289.046573	617.049266	-98.755929	331.560566	608.543051	-176.853554	233.086235	611.626044	-155.482368	446.785849	444.709718	-132.496147	342.024895	480.144660	-67.209186	262.956821	962.569474	-456.171543	289.603844	876.815769	-455.201090	341.365476	891.590706	-457.903348	305.967058	795.022558	-437.282826	324.723800	671.138478	-420.172265	243.702781	596.311774	-452.490253	206.255136	518.715018	-444.575148	167.470089	442.996552	-430.670727	258.724958	496.382487	-420.250530	115.944978	327.911415	-414.595453	94.703726	242.458845	-289.796796	67.699736	330.875864	-372.143213	263.244290	134.252564	-376.614394	169.514643	184.966284	-442.805954	-225.449977	892.892361	-254.480534	-13.365315	84.928079	-457.944499	-23.123329	81.096428	-57.921179	
753	3.7650	715.850062	1338.105382	-56.856579	765.288297	1292.454191	-427.883712	734.213311	1419.453471	-245.207314	718.440321	1256.413566	-234.405176	565.582679	1088.870560	35.982950	704.588019	898.030134	-43.375345	580.996460	1081.683126	-545.879045	703.502254	897.472448	-449.608831	375.222294	1213.824965	-433.261386	345.046619	1250.849586	-113.569599	360.314458	1163.216148	-411.690018	370.533467	1199.143480	-142.935970	227.346113	1287.633962	-229.892665	232.043241	1278.695737	-335.797126	291.575417	1156.656553	-75.026609	268.124963	1085.378585	-449.292431	385.990050	1069.260226	-56.715518	460.335710	1030.255824	-57.283916	534.252037	981.945938	-64.837797	488.527677	1075.771525	-78.651056	603.253637	891.063196	-89.484586	524.373836	815.292681	-63.584624	465.742071	752.984790	-65.340656	398.128151	696.083514	-77.198149	499.472199	719.878106	-102.189802	290.425151	608.707822	-97.735204	332.745001	601.796035	-176.404529	234.084297	600.845683	-154.357008	454.489321	443.668150	-131.935563	348.352404	473.946796	-66.172006	265.662265	963.592362	-455.415905	293.635316	878.306312	-453.794720	345.251566	893.905459	-456.041038	311.551766	797.204110	-436.134410	329.420188	672.791745	-419.042207	246.031810	600.112530	-451.161449	206.722578	523.584991	-443.506183	165.801239	449.093265	-429.615107	258.585915	499.883135	-419.102146	110.944157	335.273554	-414.039699	99.084098	263.364336	-297.226084	62.353240	338.450440	-371.144895	254.678548	138.529170	-376.824471	161.994637	191.195519	-442.275156	-225.367428	892.979637	-254.100273	-13.353099	84.973710	-457.928520	-23.102645	81.093105	-57.879055	
754	3.7700	715.919166	1335.824955	-55.548970	766.024788	1291.308443	-425.621200	734.936083	1417.840104	-243.279571	717.857388	1254.744937	-233.115897	563.251802	1087.385972	36.266676	704.258380	898.185157	-43.443416	581.631693	1081.907017	-544.898247	703.650012	897.036204	-449.830175	375.079383	1216.060884	-432.284289	344.750984	1252.486287	-112.605912	360.109683	1165.098050	-410.985130	370.687064	1200.277753	-141.558370	227.886435	1289.449003	-229.341551	231.705064	1280.623926	-334.854930	291.617461	1158.301676	-75.064497	268.412362	1086.962970	-448.758471	385.169890	1068.593260	-57.217662	458.877119	1028.699879	-58.055563	532.496208	979.263759	-65.816109	487.780603	1073.855465	-79.105045	601.352297	887.331886	-91.028807	522.370741	810.149446	-64.316723	464.525705	747.307126	-65.510870	397.526023	689.411565	-77.092985	498.698088	713.993950	-102.553811	291.521338	599.497667	-96.768965	333.690291	594.155346	-176.048543	234.638109	589.452196	-153.068740	461.783515	442.134682	-131.481008	354.588880	467.075046	-65.223966	268.517230	964.376740	-454.626225	298.129106	879.753557	-452.377645	349.527829	896.312979	-454.076850	318.338671	799.394636	-435.009146	334.820514	674.693372	-417.978625	249.160519	604.105517	-449.863010	207.659003	528.666283	-442.036055	164.872525	455.442937	-428.687332	259.052366	503.592159	-418.075533	106.221703	342.436552	-412.889693	104.108021	284.847659	-305.032126	57.653414	346.540826	-370.374650	246.416498	143.083057	-376.863007	154.738878	197.674655	-441.909965	-225.286737	893.062874	-253.771676	-13.324874	85.148627	-457.910704	-23.076409	81.114999	-57.831321	
